# xmcd
#
# Track frame offsets: 
#        150
#        16500
#        32771
#        50973
#        77242
#        95829
#        120898
#        137364
#        155999
#        173775
#        196262
#        219429
#        238766
#        255137
#        269077
#        285961
#        303254
#
# Disc length: 4249 seconds
#
# Revision: 1
# Processed by: cddbd v1.5.2PL0 Copyright (c) Steve Scherf et al.
# Submitted via: ExactAudioCopy v0.95b3
#
DISCID=e3109711
DTITLE=Various Artist - The Best Of Hollywood East (Disk1)
DYEAR=1900
DGENRE=Pop
TTITLE0=Sandra - In The Heat Of The Night
TTITLE1=Pepsi and Shirley - Heartache
TTITLE2=Sheena Easton - Strut
TTITLE3=Sheila E - The Glamorous Life
TTITLE4=Gazebo - I Like Chopin
TTITLE5=Modern Talking - You're My Heart, You're My Soul
TTITLE6=Bananarama - Venus
TTITLE7=Laura Branigan - Self Control
TTITLE8=Bad Boys Blue - You're A Woman
TTITLE9=Ken Laszlo - Tonight
TTITLE10=Finzy Kontini - Cha Cha Cha
TTITLE11=Duran Duran - Wild Boys
TTITLE12=Trans-X - Living On Video
TTITLE13=Yazoo - Don't Go
TTITLE14=Joy - Touch By Touch
TTITLE15=New Romantique - Shy Like An Angel
TTITLE16=Johnny Hates Jazz - Shattered Dreams
EXTD=
EXTT0=
EXTT1=
EXTT2=
EXTT3=
EXTT4=
EXTT5=
EXTT6=
EXTT7=
EXTT8=
EXTT9=
EXTT10=
EXTT11=
EXTT12=
EXTT13=
EXTT14=
EXTT15=
EXTT16=
PLAYORDER=
